/* XPM */
static char *fdf28251431740e3d0f8df4e04967134aFKuXpnqzCtpVmFU[] = {
/* columns rows colors chars-per-pixel */
"64 64 18 1 ",
"  c black",
". c #1D0E06",
"X c #2B1306",
"o c #351B0D",
"O c #4C2814",
"+ c #4E2D1B",
"@ c #572D15",
"# c #587018",
"$ c #405820",
"% c #587020",
"& c #507820",
"* c #687820",
"= c #708020",
"- c #709038",
"; c #808028",
": c #A8C030",
"> c #989840",
", c #D0A858",
/* pixels */
"=*==**=***=**==*****%%***====*====*=%*==**==**%%==**%%==********",
"=**=****%**=*=======*%%%**====*****==*=*=====*=%**=*%===*%**%%%*",
"**==*%%**%**=========**%%*===***%%%*=====*****==*==**%===*%**=%%",
"*=====*==****==%>*****===**==%=**%%**;====*****=*===*%=*=*****==",
"%*%%*=*===*===*=**%%%**======*%>****====******==**%%=***==**====",
"%%%%*=>****==*****%%%***====*===*==***=*%%%*=====*=%*=*===*=====",
"*%*%*=%%%%***==***=%**=**====****==*****%%%*===***==*=*=%>=*****",
"*****%%*%%**===*%**==*=======*=*===**===*%***=%>%%*=====*%***%%%",
"==*=*%*****=====*%**=**==========*=*=====********%**;====*%=**%%",
";;==*%====*==**=******==*=**=====*>=******=*%*=*%**====****==***",
";===***===**=**==**=====*****%=*=*%***%%%**=**=*%%%**=*%%%*=====",
"%======%>**==*%=**===%=*=***==***=*%===%%**=;==**%*%***%%%*=====",
"*==;;=*=**======*%***=%*=*%**=***=**=*****===;==*****%=*%***=%>*",
"***=;;**=*%=*==*         =*%***%**=*=*=***==**=;====*%**********",
"=***=;===*=%     @@@+@@@O      *%**=====**   *=    *======*%*=*%",
"=*%**;=**=   OOOOOOO@@OOOOOO@@O     ====* ...         *%**=**=*%",
"==*%*;**=  @@OOOOOOOOOOOOOOOOOOOOOOO      .oO OOOOOOOo *%**;==**",
"*=****=*  @@OOOOOOOOOOOOOOOOOOOOOOOOO@@@@ ooOOOO@ O OOO      ==*",
"===**=   @@OOOOOOOOOOOOOOOOOOOOOOOOOOOOOOO  OOOO@ O OOOOOO.   ==",
"===*= XX @OOOOOOOOOOOOOOOOOOOOOOOOOOOOOOOOOOOOOOO O OOOOOO.   ==",
"==== XX O@OOOOOOOOOOOOOOOOOOOOOOOOOOOOOOOOOOOOOO@oOoOOOOOO@@. *=",
"===  o OO@OOOOOOOOOOOOOOOOOOOOOOOOOOOOOO@@OOOOOOOOOOOOOOOOOOo **",
"=== oo O@@OOOOOOOOOOOOOOOOOOOOOOOOOOOOOO@OOOOOOOOOOOOOOOOOOoo %*",
"***  o O@OOOOOOOOOOOOOOOOOOOOOOOOOOOOOOO@OOOOOOOOOO OOOOOOOo ==*",
"%%**   O@OOOOOOOOOOO@OOOOOOOOOOOOOOOOOO@@OOOOOOOOOO@         ===",
"*%%*=  OOOOOOOOOOOO@OOOOOOOOOOOOOOOOOOOOOOoOOOOOOOO@@ooooo  ==*=",
"===** OOOOOOOOOOOOO@OOOOOOOOOOOOOOOOOOOOOOooOOOOOOOOOOo   *===**",
"*==== OOOO@OOOOOO@OOOOOoOOOOOOOOOOOOOOOOOOoooO OOOOO    ***=*=*=",
"**===  OOO@OOOOO@@OOOOOoOOOOOOOOOOOOOOOOOOOoooX     =*=*==#-#>=*",
"***=== OOO@OOOOO@OOOOOOooOOOOOOOOOOOOOOOOOOoooXXXX *%>**=$#$##**",
"*=====  OO@OOOOO@OOOOOOoooOOOOOOOOOOOOOOOOOOoooXX >*%%%%#:#$####",
"======  OO@OOOOO@OOOOOOoooOOOOOOOOOOOOO@OOOOOooXX **=%-$$>=***--",
"***=**   O@OOOOO@OOOO@O ooOOOOOOOOOOOOOOOOOOOooX ***%=*=*%***%%%",
"*******  O@OOOOO@OOO@@O ooOOOO@OOOOOOOOOOOOOOooo ***%%%***==**%%",
"*==***=  O@OOOOOOOOO@OO oOOOOO@OOOOOOOOOOOOOOOo =***=%**=**====*",
"*==*%**= O@OOOOOOOOO@O ooOOOO@OOOOOoOOOOOOOOOOo =*%**==*=======*",
"====*%*  O@OOOOOOOO@OO ooOOO@@OOOooOOOOOOOOOOO  ==*%**=**=======",
"%=*=**   O@OOOOOOO@OOO oOOO@@OOOOo OOOO@OOOO  .X =******==*=**==",
"%**== OOOOO@OOOOO@OOO  oOOO@OOOoo OOOOO@OO  .XXoo =**=====*****%",
"%*== OOOOoO@@OOOOOOO  XoOOOOOOoo oOOOOO@O ..XooXoo *===%=*=***==",
"**=% OOOOooOOOOOOOO   oOOOO     oOOOOOO@O .Xoo Xooo ***=%*=*%**=",
"=*=* OOOOooOOOOOOO  .X      *=; OOOOOOO@O Xooo Xoooo ***==*=*%**",
"***=* OOOOoOO     .XXoo *==***= OOOOOOO@     . .Xooo =***===****",
"***=* OOOOoX  XXXXXooo **==*%** OOOOOOO@ **==   XXoo =*======**=",
"*%**=* OO OoX Xooooooo =====*%* OOO@@@@+ **** .XXooo >=*******==",
"=*%**==  OOO = oooooooo  =*=**** OOOOO@  **%% XXoooo %$$$%%%**=*",
"=*****== X O = oooooXX..  ===**= OOOOooX  **% Xoooo $$#$$$%%**==",
"==**===*=   ==  ooooooooo  $#$$$  OOOOOOO  $$ ooooo $$$#*****===",
"==*===*****#$$$  oooo X. X $$$*$$  OOO . o ##$     $$#*$$===*==*",
"%>;;==*%$$$$###$          $#$$**$$         $$*$$$$$#*#$$$===**=*",
"**;===**$$$**$$$$$$$$$$$$#$$$%=**$$$$$####$$$$$$$$#$$$$$=%>**==*",
"**%======%>**$=$##*###$**$$==*%>****$#$$$$$$$$$$$$$$$$******====",
"=**==;;=*=**=$$$$$$$$$$$$$==*===*==*=**=====*>=******=*%*=*%*%%*",
"*****=;;**=*%=*==****===**===****===****%=*=*%***%%%**=**=*%%%%*",
"**=***=;===*=%**=****=*=*====*=*==*=***==***=*%=**%%**=;==**%*%*",
"*%**%**;=**=*==*=*==#-#>=**======*%**%**=***=**==****===;==*****",
"=*%=*%*;**==**%>**=$#$##****=====***;*%***%**=*=====*==**=;==*=*",
"=**=****=*===*%%%%#:#$####%**=======;;*****%**======**=**=;;;==*",
"==**=**==**%%=*%-$$>=***--%**====;=;=;;*===****==%>**==*%=*;===*",
"==*==*====*=%*#===*%***%%%**====%==*;;>=====*===*=**======*%====",
"%>=*==*****==*;====*%=*==**=**==*%***>>>*****==*****%=*==***==;;",
"*%******%%%**====****=**=****%*=******%>>%%%***==***=%**=*****=;",
"=*%=*%=**%==***=*%%%*=*==*%%***==**===***,%%**===*%**==*=*==***=",
"=**==*%>*&==*****%%%*======*=====*=====*==>**=====*%**==**==*%**"
};
