/* XPM */
static char *b3a07aa2ab95433589ac69b8ab4a03bcCIOawKe24PA065jL[] = {
/* columns rows colors chars-per-pixel */
"64 64 18 1 ",
"  c black",
". c #1D0E06",
"X c #2B1306",
"o c #351B0D",
"O c #4C2814",
"+ c #4E2D1B",
"@ c #572D15",
"# c #587018",
"$ c #405820",
"% c #587020",
"& c #507820",
"* c #687820",
"= c #708020",
"- c #709038",
"; c #808028",
": c #A8C030",
"> c #989840",
", c #D0A858",
/* pixels */
"********==%%**==%%**==**==*%=*====*====***%%*****==**=***=**==*=",
"*%%%**%*===%*=**%=*=====*=*==*****====**%%%*=======*=**%****=**=",
"%%=**%*===%**==*==*****=====*%%%***===*%%**=========**%**%%*==**",
"==*****=*=%*===*=*****====;**%%**=%==**===*****>%==****==*=====*",
"====**==***=%%**==******====****>%*======**%%%**=*===*===*=*%%*%",
"=====*===*=*%=*=====*%%%*=***==*===*====***%%%*****==****>=*%%%%",
"*****=>%=*=*==***===*%%%*****==****====**=**%=***==***%%%%=*%*%*",
"%%%***%*=====*%%>%=***%*===**===*=*=======*==**%*===**%%*%%*****",
"%%**=%*====;**%********=====*=*==========**=**%*=====*****%*=*==",
"***==****====**%*=*%*=******=>*=====**=*==******=**==*====%*==;;",
"=====*%%%*=**%%%*=**=**%%%***%*=*=%*****=====**==**=**===***===;",
"=====*%%%***%*%**==;=**%%===%*=***==***=*=%===**=%*==**>%======%",
"*>%=***%*=%*****==;===*****=**=***=**%*=*%=***%*======**=*=;;==*",
"**********%*====;=**==***=*=*=**%***%*=         *==*=%*=**;;=***",
"%*=*%*======*    =*   **=====**%*      O@@@+@@@     %=*===;=***=",
"%*=**=**%*         ... *====     O@@OOOOOO@@OOOOOOO   =**=;**%*=",
"**==;**%* oOOOOOOO Oo.      OOOOOOOOOOOOOOOOOOOOOOO@@  =**;*%*==",
"*==      OOO O @OOOOoo @@@@OOOOOOOOOOOOOOOOOOOOOOOOO@@  *=****=*",
"==   .OOOOOO O @OOOO  OOOOOOOOOOOOOOOOOOOOOOOOOOOOOOO@@   =**===",
"==   .OOOOOO O OOOOOOOOOOOOOOOOOOOOOOOOOOOOOOOOOOOOOOO@ XX =*===",
"=* .@@OOOOOOoOo@OOOOOOOOOOOOOOOOOOOOOOOOOOOOOOOOOOOOOO@O XX ====",
"** oOOOOOOOOOOOOOOOOOO@@OOOOOOOOOOOOOOOOOOOOOOOOOOOOOO@OO o  ===",
"*% ooOOOOOOOOOOOOOOOOOO@OOOOOOOOOOOOOOOOOOOOOOOOOOOOOO@@O oo ===",
"*== oOOOOOOO OOOOOOOOOO@OOOOOOOOOOOOOOOOOOOOOOOOOOOOOOO@O o  ***",
"===         @OOOOOOOOOO@@OOOOOOOOOOOOOOOOOO@OOOOOOOOOOO@O   **%%",
"=*==  ooooo@@OOOOOOOOoOOOOOOOOOOOOOOOOOOOOOO@OOOOOOOOOOOO  =*%%*",
"**===*   oOOOOOOOOOOooOOOOOOOOOOOOOOOOOOOOOO@OOOOOOOOOOOOO **===",
"=*=*=***    OOOOO OoooOOOOOOOOOOOOOOOOOOoOOOOO@OOOOOO@OOOO ====*",
"*=>#-#==*=*=     XoooOOOOOOOOOOOOOOOOOOOoOOOOO@@OOOOO@OOO  ===**",
"**##$#$=**>%* XXXXoooOOOOOOOOOOOOOOOOOOooOOOOOO@OOOOO@OOO ===***",
"####$#:#%%%%*> XXoooOOOOOOOOOOOOOOOOOOoooOOOOOO@OOOOO@OO  =====*",
"--***=>$$-%=** XXooOOOOO@OOOOOOOOOOOOOoooOOOOOO@OOOOO@OO  ======",
"%%%***%*=*=%*** XooOOOOOOOOOOOOOOOOOOOoo O@OOOO@OOOOO@O   **=***",
"%%**==***%%%*** oooOOOOOOOOOOOOOO@OOOOoo O@@OOO@OOOOO@O  *******",
"*====**=**%=***= oOOOOOOOOOOOOOOO@OOOOOo OO@OOOOOOOOO@O  =***==*",
"*=======*==**%*= oOOOOOOOOOOoOOOOO@OOOOoo O@OOOOOOOOO@O =**%*==*",
"=======**=**%*==  OOOOOOOOOOOooOOO@@OOOoo OO@OOOOOOOO@O  *%*====",
"==**=*==******= X.  OOOO@OOOO oOOOO@@OOOo OOO@OOOOOOO@O   **=*=%",
"%*****=====**= ooXX.  OO@OOOOO ooOOO@OOOo  OOO@OOOOO@OOOOO ==**%",
"==***=*=%===* ooXooX.. O@OOOOOo ooOOOOOOoX  OOOOOOO@@OoOOOO ==*%",
"=**%*=*%=*** oooX ooX. O@OOOOOOo     OOOOo   OOOOOOOOooOOOO %=**",
"**%*=*==*** ooooX oooX O@OOOOOOO ;=*      X.  OOOOOOOooOOOO *=*=",
"****===***= oooX. .     @OOOOOOO =***==* ooXX.     OOoOOOO *=***",
"=**======*= ooXX   ==** @OOOOOOO **%*==** oooXXXXX  XoOOOO *=***",
"==*******=> oooXX. **** +@@@@OOO *%*===== oooooooX XoO OO *=**%*",
"*=**%%%$$$% ooooXX %%**  @OOOOO ****=*=  oooooooo = OOO  ==**%*=",
"==**%%$$$#$$ ooooX %**  XooOOOO =**===  ..XXooooo = O X ==*****=",
"===*****#$$$ ooooo $$  OOOOOOO  $$$#$  ooooooooo  ==   =*===**==",
"*==*===$$*#$$     $## o . OOO  $$*$$$ X .X oooo  $$$#*****===*==",
"*=**===$$$#*#$$$$$*$$         $$**$$#$          $###$$$$%*==;;>%",
"*==**>%=$$$$$#$$$$$$$$####$$$$$**=%$$$#$$$$$$$$$$$$**$$$**===;**",
"====******$$$$$$$$$$$$$$$$#$****>%*==$$**$###*##$=$**>%======%**",
"*%%*%*=*%*=******=>*=====**=*==*===*==$$$$$$$$$$$$$=**=*=;;==**=",
"*%%%%*=**=**%%%***%*=*=%****===****===**===****==*=%*=**;;=*****",
"*%*%**==;=**%%**=%*=***==***=*==*=*====*=*=****=**%=*===;=***=**",
"*****==;===****==**=***=**%**%*======**=>#-#==*=*==*=**=;**%**%*",
"*=*==;=**==*=====*=**%***%*;***=====****##$#$=**>%**==**;*%*=%*=",
"*==;;;=**=**======**%*****;;=======**%####$#:#%%%%*===*=****=**=",
"*===;*=%*==**>%==****===*;;=;=;====**%--***=>$$-%*=%%**==**=**==",
"====%*======**=*===*=====>;;*==%====**%%%***%*===#*%=*====*==*==",
";;==***==*=%*****==*****>>>***%*==**=**==*=%*====;*==*****==*=>%",
";=*****=**%=***==***%%%>>%******=*%****=**=****====**%%%******%*",
"=***==*=*==**%*===**%%,***===**==***%%*==*=*%%%*=***==%**=%*=%*=",
"**%*==**==**%*=====**>==*=====*=====*======*%%%*****==&*>%*==**="
};
