/* XPM */
static char *_1c4d25f4e974441ab5c0936aaded5dcxSYBMPNvpXpFZng9[] = {
/* columns rows colors chars-per-pixel */
"64 64 17 1 ",
"  c black",
". c #502830",
"X c #587018",
"o c #6E4231",
"O c #704838",
"+ c #587020",
"@ c #507820",
"# c #687820",
"$ c #906858",
"% c #977264",
"& c #708020",
"* c #709038",
"= c #808028",
"- c #A8C030",
"; c #989840",
": c #A88868",
"> c #C8A878",
/* pixels */
"&#&&##&###&##&&#####++###&...#&&&&#&+#&&##&&##++&&######++######",
"&##&####+##&#&&&&&.&#.....$$.............&&&&#&+##&&&#&#+###+++#",
"##&&#++##+##&&&.......$::$$$$$$$$$$$$$OO$....#&&#&&==&&#+&+##&++",
"#&&&&&#&&#......$$$..$::$$$$$$$$$OOOOOOo......#&#&&=&&&#######&&",
"+#++#&#&&..$$$$$$$$$:>>$$$$$$$$$$.......$$$$$$..##++&&&&&&##&&&&",
"++++#&;##.$>$$..$$::::$.....$$$OO$$$$O$$$$O$OO$.&#&#&&==&##&&&&&",
"#+#+#&++..:>$$O.$$O$>$$OOOO..$$OO$$$$OO$$$$OOO$$.#&###&#=#&#####",
"#####++#.$:>$$O.$$O$>$$$$$$O..$OO$$$$$O$$$$$OOOO..#&###&=&###+++",
"&&#&#+##.$>$$$O.$$O$$$$$$OOO$$$O$$.........$$OoO$..#&##&&=&###++",
"==&&#+&&.$$$$$O.$OO$$........$$$..$$$$$$$$..$$OoOOO.&##=&=&###++",
"=&&&###&.$$$OOo.$O$$..$$$.$$.$$:>$$$$$O$$$OO..$Oo$O.#&#=#&=&###+",
"+&&&&&&.$$$OOOo$$$$$$$$$$$$$$$.>$$$O$$O$$$oOo.$Oo$O..&#&&==&&#+&",
"#&&==&#.$$OOO..$$$$$$$OO$$$$$$.$$$O$$$O$$$oOo.$OO$O....&&=&&&###",
"###&==#.OOoo.......$$$$O$$$OO$.$$$O$$OO$$$oOo.$OO....$.#+&&##&&&",
"&###&=&.OOo..$>$$$.$$$$$$$$$O$.$$$O$$O$$$$oOo.$$..$.....&&##&&&&",
"&#+##=&.Ooo.:>$$$$$.$$$$$$$$O$.$$$O$$O$$$$oO..$$.$$O$.$.&=#&####",
"&&#+#=..Oo.$:$$$$$$$$O::::$$O$..$$O$$O:::oo..$O$.:$$O$.$.=&###++",
"#&###...oo.$$$O$$$$$O..$::$OO$O.$O$$OO$$:o$..OO$.>>$O$.$.&=&###+",
"&&&#..$.o..$$$O$$$$$OO.$::$$$$OO$$$$OO$$:o$$.OO$.$$$O$...&=#=#&#",
"&&&..:$$..$$$$O$$$$$OO.$::$$$OooO$$$OoOOOO$$....$$$$OO$...&&=&##",
"&&&.:>$$.$$$$O$$$$$$OO.$::$$$O..O$$$Ooo...$$$OO$.$$$$O$.$.&=&=&#",
"&&&.>$$$$.$$$O$$$$$$OO.$$$$$$O..O$$ooo.O$$$$$OO$$.$$$O$.O.#=&=&#",
"&&&.>$$$O..$$O$$$$$$OO.OOOOO....OOOooo.O::$$$OO$$.$$$OO.O$.&#&=&",
"###.$$$$O..$$O$$$O$$Oo..ooo..   ......OO$:O$$OO$..$$$Oo.$O.=&==&",
"++..$$$$O.$$$$$$$OOOOoo....          .O$$$OOOOO$$.$$$Oo.$O.=&=&=",
"#+.$$$$OO..$$$$$$OOOOoo..            ..O$$OOOOO$$.$$OOo.$O..+&&=",
"&&.$$$OO......$$$OOOooo.              .OO$OOOOO$$.$Oooo.$O$.&&#&",
"#$.$$$O.$$$$.....Oooooo.              .OOOOOOOO$$.$$....$$O..#&&",
"$.$$$$O.$$$$$..$......o.               .OO.....$....$$..$$OOo$#=",
"$.$$OOO.$O$$..$OO$$$$$.                 ..$$$$$$...::O$.$$OOo.$=",
"$.$$OOo.:$O$.$$$$:>>:$.                 .O:>>:$$$.$:>OO..$OOo.$&",
"$..$OO..>$OO.$$O$$$$$O.                 .:$$$$O$$$.$$$OO.$OOoo$$",
"$#..$O.:>$$O.$$O$$$$$O                  .O$$$$O$$$.$$OOOO.$OOo$$",
"$O#.$Oo.>$$O.$$O$$$$OO                 . .$$$OO$$$.$$O$$OO.Ooo$$",
"$O&.$Oo.$$$O.$$O$$$$OO            . . . ..$$$OO$$$..$O$$$O.$O.$$",
"$O&.ooo..$$o.$$O$$$$OO.        . . . . . .$$$OO$$$$.$O$$$O..o.$$",
"&$O....$.$Oo..$O$$$$OO.   . . . . . . . ..$$$OO$o$$.$$O$$Oo.o.$$",
"+$O&####..ooo.$O$$$$OO.. . . . . . . . . .$$$OO$o$$.$$$O$$o.o.$$",
"+$O%%%%%&.ooo.$$$$$$OO. . . . ........O. .$$$OO$o$$.$$$O$$o.o.$$",
"+$O%%%%%&...o.$$$O$$OO.. . .....O.O.O... OO$$OO$o$$.$$oOOoo...$$",
"#$$%%OO%%%#...$$$OOOOOO......O.O.O.O.O.. OOOOOo$o$$.$$oOo.%%%%%&",
"&#$%%OO%%%%#$...$OOOOOO.O.O.O.O.O.OOOOO. OOOOOo$o$$.$oo..&%%%%%#",
"##$&$%%OOO%O#$%..OOOOOOO.O.O.OOOOOO$O$O..OOOOoooooo.$...#%%%%$%%",
"##$$$%%%OO#OO$$%..OOOO..OO$O$O$O$O$O$O$..ooooooooo..$.#&%%$$$$%%",
"#+#$$$%%%%%#O%%%$......OO$O$O$O$O$O$O$O..o.....%..$$$;&%%$%%$$%&",
"&#+$#$$%%%%##%%%$$$$$$$$$$$$$$$$$$$$$$:$O.#%+%%%&$$%%%%%%$$$$$%$",
"&#####&$$;##&&$$$$$$&%%%%$%%%%#%%%#+%%%%+%%%%%%%%%%%$%%%%%%+$$$&",
"&&##&&%%&$$&&&$$%%%%%%O%%%%&$$$%%%%%%%%%%%%%O%%%%%$%$$$%$%$$#&&&",
"&&#&%%#%##$%%$&&#$%$$OO%%%%%%%%%%O%%%%%%%%%$%%%%%%%++$$&&%$$#$&#",
"+;==%&%+&&%%OO&##$%##O%OO%$$%$%%OO%%O%%&%%%%$$$%%$$$$$$&&$$&#%&#",
"##=&%$%#%%&%%%&#OO#%OO&%$%%%&+%%#++%%%%O%OO$&$$#&$$#$#%%%$$#%%&#",
"##+$%%$$$+%%%%$$$OO&%#&&O$&&%#%%$$%#&&OOOOO$$&#&$&$$%%$$$%%#&$&&",
"$$$$$%%%$$%$$%$&$&#%%%%OO&&%%%%&#&%$$$$&O&&$$%%$$#$%%&%+#&#+$$+#",
"####%%=$$#&$%%$$$$%%%%$%%O%%$%$%%%&&##$$+$$&$$%##+%+#%%%#&$$$$+#",
"##&##$&%%&%#%+$%&$%#%&#%$%%$%%%$%%#$$$%%$$#$$$%$%$++%%&%$&$#+#+#",
"#+##+$#=%#%%%%%$$$$%%$$$%%%%%%%%%%$$$$%#$$$%%%%$&###%%&&$&&#####",
"&#+&#$$$#%%$$%%%##&%%%$$$$%%%&%&%$$$=#%$#%$#$&#$&&&&#&&#$&=&&#&#",
"$$$$$$$$$%$$&#%$$+X-$$$$XX+##&$%%&&$==%#$##+$#&$&&&&##&##&===&&#",
"&&##&#$$&##$$$$$$$$$&###**+##%%%&%%%%%=#$&&#$##$&+;##&$%+&#=&&&#",
"&&#&&#&&$&#$+#X$&&#$$$$$$%%%%&$$+&$#==%%$$$$$&&$$$##&&&%&&#+&&&&",
"+;&#&&##$$$$&#=$&&&#+$$$$$$$$$&$$$#%#;%;#####&&##%%%+&#&&###&&==",
"#+######+++##&&$$%%%%%%%%####+#&$$####%;;+++###&&###&+##&#####&=",
"&#+&#+&##+&&##%%%+%%#&#&&%%$#%#&&$%&&&%##%%+#%&&&#+##&&#&#&&###&",
"&##&&#+;#@&&#####+%+%%%&&&&#&%&&&#%%%%%#&&;##&&&&&#+##&&##&&#+##"
};
