/* XPM */
static char *d1fff24882824945aefa4636bab7690cGGW4kXcHLyYKD8HV[] = {
/* columns rows colors chars-per-pixel */
"64 64 11 1 ",
"  c #587018",
". c #405820",
"X c #587020",
"o c #507820",
"O c #687820",
"+ c #708020",
"@ c #709038",
"# c #808028",
"$ c #A8C030",
"% c #989840",
"& c #D0A858",
/* pixels */
"+O++OO+OOO+OO++OOOOOXXOOO++++O++++O+XO++OO++OOXX++OOXX++OOOOOOOO",
"+OO+OOOOXOO+O+++++++OXXXOO++++OOOOO++O+O+++++O+XOO+OX+++OXOOXXXO",
"OO++OXXOOXOO+++++++++OOXXO+++OOOXXXO+++++OOOOO++O++OOX+++OXOO+XX",
"O+++++O++OOOO++X%OOOOO+++OO++X+OOXXOO#++++OOOOO+O+++OX+O+OOOOO++",
"XOXXO+O+++O+++O+OOXXXOO++++++OX%OOOO++++OOOOOO++OOXX+OOO++OO++++",
"XXXXO+%OOOO++OOOOOXXXOOO++++O+++O++OOO+OXXXO+++++O+XO+O+++O+++++",
"OXOXO+XXXXOOO++OOO+XOO+OO++++OOOO++OOOOOXXXO+++OOO++O+O+X%+OOOOO",
"OOOOOXXOXXOO+++OXOO++O+++++++O+O+++OO+++OXOOO+X%XXO+++++OXOOOXXX",
"++O+OXOOOOO+++++OXOO+OO++++++++++O+O+++++OOOOOOOOXOO#++++OX+OOXX",
"##++OX++++O++OO+OOOOOO++O+OO+++++O%+OOOOOO+OXO+OXOO++++OOOO++OOO",
"#+++OOO+++OO+OO++OO+++++OOOOOX+O+OXOOOXXXOO+OO+OXXXOO+OXXXO+++++",
"X++++++X%OO++OX+OO+++X+O+OOO++OOO+OX+++XXOO+#++OOXOXOOOXXXO+++++",
"O++##+O+OO++++++OXOOO+XO+OXOO+OOO+OO+OOOOO+++#++OOOOOX+OXOOO+X%O",
"OOO+##OO+OX+O++OOO+OOO++O+OXOOOXOO+O+O+OOO++OO+#++++OXOOOOOOOOOO",
"+OOO+#+++O+XOO+OO++OXOO+++OOOOOOXOO+++++OO++OO+###OO++++++OXO+OX",
"+OXOO#+OO+O++O+OOO+OOOOO+++OO+++OOOO++++O+++OX+O#+++++OXOO+OO+OX",
"++OXO#OO++OOX%oXXO++OO+++++O+++++O++O++++OOOO++OX++++++OXOO#++OO",
"O+OOOO+O+++OXOOX%OOOO+++++%+OOOOOO++O+++OOOXXXOOO+++OO+OOOOO+++O",
"+++OO++OOXX++OOXX++OOOOOOOXOOOXXXOOOOO++X+OOXXOOOOO+OO++OO++++++",
"+++O++++O+XOO+OX+++OXOOXXXOX+OOXXOO+++++OX%OOOO++OOOOX+OO+++++++",
"++++OOOOO++O++OOX+++OXOO+XOO++OOOO+++++O+++O++OOO++++++OXOOOOOO+",
"++++O+OOOO+O+++OX+O+OOOOO++O+++++O++++++OOOO++OOOX+O++OOO+OXXXOO",
"+++++++OO++OOXX+OOO++OO++++++++++OO+++++O+O+++OO++O++OO+XOOOOXXO",
"OOO++++O++++O+XO+O+++O++++++++X%OO++++++++++O+O+++OO+OO+OX%O+++O",
"XXOO++++OOOOO++O+O+X%+OOOOOO+++OO++O+OO+++++O%+O%OO++OX+O++O++++",
"OXXO+++OOOXXXO+++++OXOOOXXXOO+++OXOOOOOOX+O+OXOOOO++++++OOOO++O+",
"+++OO++X+OOXXOO#++++OX+OOXXOO++++X++OOO++OOO+OX+OOX+O++OOOO+++OO",
"O++++++OX%OOOO++++OOOO++OOOO++++OX++OXOO+OOO+OO++O+XOO+OOOO+O+O+",
"OO++++O+++O++OOO+OXXXO+++++O++OO+OO++OXOOOXOO+O+++O++O+O++ @ %+O",
"OOO++++OOOO++OOOOOXXXO+++++OO+OOOOXO+OOOOOOXOO++++OOX%OO+. .  OO",
"O++++++O+O+++OO+++OXOOO+X%OO++OXXOOO++OO+++OOOO++X%OXXXX $ .    ",
"+++++++++++O+O+++++OOOOOOOO+++++O+++++O+++++O+++O+OO+X@..%+OOO@@",
"OOO+OO+++++O%+OOOOOO+OXO+OXOXXO+O+++X%+OOOOOO++OOOOOX+O+OXOOOXXX",
"OOOOOOOX+O+OXOOOXXXOO+OO+OXXXXO+%OOOOXOOOXXXOO+OOOOOXXXOOO++OOXX",
"O++OOO++OOO+OX+OOXXOO+#++OOXOXO+XXXX+OX+OOXXOOO++OOO+XOO+OO++++O",
"O++OXOO+OOO+OO++OOOO+++#++OOOOOXXOXX+OO++OOOOO+++OXOO++O+++++++O",
"++++OXOOOXOO+O+++++O++OO+#++O+OXOOOOO+++++++O+++++OXOO+OO+++++++",
"X+O+OOOOOOXOO++++++OO+OO+###++OX++++O++OO+++O++OO+OOOOOO++O+OO++",
"XOO++OO+++OOOO++X%OO++OX+O#+++OOO+++OO+OO+++OO+OO++OO+++++OOOOOX",
"XO+++O+++++O+++O+OO++++++OX++++++X%OO++OXX%OO++OX+OO+++X+O+OOO++",
"OO+X%+OOOOOO++OOOOOX+O++OOO++##+O+OO++++++OO++++++OXOOO+XO+OXOO+",
"+O+OXOOOXXXOOO++OOO+XOO+OOOOO+##OO+OX+O++O+OX+O++OOO+OOO++O+OXOO",
"OOO+OX+OOXXOO+++OXOO++O+O++OOO+#+++O+XOO+++O+XOX+OOO++OOO+++OOOO",
"OOO+OO++OOOO+++++OXOO++OO++OXOO#+OO+O++O+OO++O+XO+O+++O++++++OO+",
"OXOO+O+++++O++OO+OOOOO++++++OXO#OO++OOX%OOOOOO++O+O+X%+OOOOOOO++",
"+OXOO++++++OO+OO++OO++++++O+OOOO+O+++OXXXOOXXXO+++++OXOOOXXXOO+O",
"+OOOOO++X%OO++OX+OO++++++++++OO++OOXX+OXX+OOXXOO#++++OX+OOXXOO++",
"++OO+++O+OO++++++OXOOOOOO++++O++++O+XO+OOX%OOOO++++OOOO++OOOO+++",
"++O+++OOOOOX+O++OOO+OXXXOO++++OOOOO++OXO+++O++OOO+OXXXO+++++O++O",
"X%##++OX++++O++OO+XOOOOXXO+++OOOXXXO++++OOOO++OOOOOXXXO+++++OO+O",
"OO#+++OOO+++OO+OO+OX%O+++OO++X+OOXXOO#++O+O+++OO+++OXOOO+X%OO++O",
"OOX++++++X%OO++OX+O++O+++++++OX%OOOO++++++++O+O+++++OOOOOOOO++++",
"+OO++##+O+OO++++++OOOO++O+++O+++O++O+OO+++++O%+OOOOOO+OXO+OXOXXO",
"OOOOO+##OO+OX+O++OOOO+++OO+++OOOO+++OOOOX+O+OXOOOXXXOO+OO+OXXXXO",
"OO+OOO+#+++O+XOO+OOOO+O+O++++O+O++O+OOO++OOO+OX+OOXXOO+#++OOXOXO",
"OXOOXOO#+OO+O++O+O++ @ %+OO++++++OXOOXOO+OOO+OO++OOOO+++#++OOOOO",
"+OX+OXO#OO++OOX%OO+. .  OOOO+++++OOO#OXOOOXOO+O+++++O++OO+#++O+O",
"+OO+OOOO+O+++OXXXX $ .    XOO+++++++##OOOOOXOO++++++OO+OO+###++O",
"++OO+OO++OOXX+OX@..%+OOO@@XOO++++#+#+##O+++OOOO++X%OO++OX+O#+++O",
"++O++O++++O+XO +++OXOOOXXXOO++++X++O##%+++++O+++O+OO++++++OX++++",
"X%+O++OOOOO++O#++++OX+O++OO+OO++OXOOO%%%OOOOO++OOOOOX+O++OOO++##",
"OXOOOOOOXXXOO++++OOOO+OO+OOOOXO+OOOOOOX%%XXXOOO++OOO+XOO+OOOOO+#",
"+OX+OX+OOX++OOO+OXXXO+O++OXXOOO++OO+++OOO&XXOO+++OXOO++O+O++OOO+",
"+OO++OX%Oo++OOOOOXXXO++++++O+++++O+++++O++%OO+++++OXOO++OO++OXOO"
};
