/* XPM */
static char *_7de2dbb0b1542ccb22bfeb61de6b1b37yZ4YwfWZ3dBecCN[] = {
/* columns rows colors chars-per-pixel */
"32 32 6 1 ",
"  c None",
". c black",
"X c #3D120E",
"o c #FFC90E",
"O c #E607F8",
"+ c #67A4E0",
/* pixels */
"                                ",
"                                ",
"                                ",
"            XXXXXXXXX           ",
"           XXXXXXXXXXX          ",
"          XXXXXXXXXXXXX         ",
"         XXXXXXXXXXXXXXX        ",
"         XXXXXXXXXXXXXXXX       ",
"        XXXXoXXXXoXXXXXXX       ",
"        XXXoooXXooXXoXXXX       ",
"        XXXoooooooooooXXXX      ",
"       XXXXoooooooooooXoXX      ",
"       XXXXo..oooo..ooooXX      ",
"       XXXoooooooooooooXXX      ",
"       XXXooooo..oooooXXXX      ",
"       XXXXoooooooooXXXXXX      ",
"       XXXXXXooooooXXXXXXX      ",
"        X XXXXXXooXXXXX X       ",
"               XooX   X         ",
"              XXXXXXX           ",
"           XXX+XXXX+XXX         ",
"          X+X++++++++X+X        ",
"         X+XOOOOOOOOOXX+X       ",
"         X+X++++++++++X+X       ",
"         XXXOOOOOOOOOOXXX       ",
"         XoX++++++++++XoX       ",
"         XXX++++++++++XXX       ",
"           X+++XXX++++X         ",
"           X+++X X++++X         ",
"           XXXXX XXXXXX         ",
"             XXX XXXX           ",
"            XXXX XXXXX          "
};
