/* XPM */
static char *fa743c3c392341ea950288cd28654862wk04fm6jRBwS3ZM5[] = {
/* columns rows colors chars-per-pixel */
"32 32 2 1 ",
"  c None",
". c red",
/* pixels */
"                                ",
"                                ",
"                                ",
"                                ",
"                                ",
"                                ",
"                                ",
"                                ",
"          ..        ..          ",
"         .....    .....         ",
"        .......  .......        ",
"        .......  .......        ",
"        ................        ",
"        ................        ",
"        ................        ",
"        ................        ",
"        ................        ",
"        ................        ",
"          ............          ",
"          ............          ",
"            ........            ",
"            ........            ",
"              ....              ",
"              ....              ",
"                                ",
"                                ",
"                                ",
"                                ",
"                                ",
"                                ",
"                                ",
"                                "
};
