/* XPM */
static char *_e4d29e9f1d1420087ee29aea382698bvBGzPECNCgXoR3qP[] = {
/* columns rows colors chars-per-pixel */
"64 64 142 2 ",
"   c #2A1E0F",
".  c #37240C",
"X  c #4A3316",
"o  c #3E5D11",
"O  c #415202",
"+  c #46551C",
"@  c #465A1C",
"#  c #754F0B",
"$  c #664214",
"%  c #556E0B",
"&  c #5B6B0E",
"*  c #5A7202",
"=  c #5D730F",
"-  c #4E6411",
";  c #536511",
":  c #566B14",
">  c #5D6D15",
",  c #566C1A",
"<  c #5B6D1B",
"1  c #537016",
"2  c #5C7115",
"3  c #55721E",
"4  c #5D711C",
"5  c #5F791E",
"6  c #647A09",
"7  c #616E13",
"8  c #606E1C",
"9  c #696B1F",
"0  c #7B6918",
"q  c #627316",
"w  c #6A7616",
"e  c #667915",
"r  c #6A7C16",
"t  c #65751C",
"y  c #69761D",
"u  c #65791D",
"i  c #6B7B1D",
"p  c #72751A",
"a  c #727D1D",
"s  c #797C1E",
"d  c #485623",
"f  c #556D22",
"g  c #5B6D22",
"h  c #5C6D2A",
"j  c #5D7222",
"k  c #5F712B",
"l  c #626D21",
"z  c #647522",
"x  c #697722",
"c  c #667A23",
"v  c #6C7B22",
"b  c #6E7D22",
"n  c #697B25",
"m  c #6B7A25",
"M  c #6A7D25",
"N  c #6D7D24",
"B  c #657329",
"V  c #697428",
"C  c #667A29",
"Z  c #657B2A",
"A  c #6A7928",
"S  c #6B7E29",
"D  c #6C7C29",
"F  c #6E7E2A",
"G  c #707F20",
"H  c #717E23",
"J  c #717F27",
"K  c #797E23",
"L  c #727F29",
"P  c #717E2C",
"I  c #657431",
"U  c #687734",
"Y  c #6E7935",
"T  c #9D6708",
"R  c #9B6911",
"E  c #B57C18",
"W  c #805E20",
"Q  c #6B8216",
"!  c #6E811D",
"~  c #71811E",
"^  c #638224",
"/  c #6D8021",
"(  c #6E8023",
")  c #698821",
"_  c #6F8228",
"`  c #6E8229",
"'  c #728122",
"]  c #778023",
"[  c #728126",
"{  c #738424",
"}  c #768625",
"|  c #7A8326",
" . c #738921",
".. c #7A8825",
"X. c #718128",
"o. c #738229",
"O. c #74822A",
"+. c #758528",
"@. c #74842C",
"#. c #7B842A",
"$. c #78892B",
"%. c #6D8837",
"&. c #6E8B3B",
"*. c #738432",
"=. c #748B33",
"-. c #71853B",
";. c #74923C",
":. c #708A43",
">. c #B78603",
",. c #808326",
"<. c #82852C",
"1. c #84892D",
"2. c #85943C",
"3. c #8C973F",
"4. c #8C9B3E",
"5. c #94973E",
"6. c #B79F38",
"7. c #89A02E",
"8. c #C88612",
"9. c #E6980E",
"0. c #E2BE23",
"q. c #A3C030",
"w. c #E9C732",
"e. c #8F9742",
"r. c #859940",
"t. c #8C9B42",
"y. c #849648",
"u. c #8E9B4B",
"i. c #939242",
"p. c #909D43",
"a. c #929A44",
"s. c #999E47",
"d. c #919E4C",
"f. c #B19E4A",
"g. c #91A146",
"h. c #94A24C",
"j. c #BBAE5F",
"k. c #EDB044",
"l. c #A9C441",
"z. c #F5D755",
"x. c #F5D95E",
"c. c #EFD872",
/* pixels */
"M N v [ y y X.y t c M x v X.[ y u c x m < 4 M 5 y [ i ~ i y v G ( ( v N > v N N v w i ' i u t < G b y M , 4 ( i x v y y M 4 z Z ",
"+.q b [ t y m c t t M N v y G { i ~ G +.t < < g m t ' i i O.v v c t c N b b ( i J O.b G y y M z y y v y 4 m X.' c : M c ; c 4 t ",
"y i b b N t : c z y y y y b ' i ] a } i ( v A < < v [ b O.t t v z < 4 m [ G ~ r b b y v v v X.v y [ [ v z z [ b ` y 4 t M M : t ",
"t N X.X.X.v v X.M v y y v [ b q e.y y 4 v t i #.P y y [ J t m v z < < v v [ ~ ~ X.y v v y y u i y [ v M S , v y b b v x M v ( i ",
"j Z c : y [ t J [ i i [ ( v v m v x z j , S e r J ' ' i y y t 3.c v y v x J [ G c m c v v y i ' v y t 4 F x v y i y v y J b i } ",
", j - z y J p.y u u v b b v m m r t , g f c c ( [ i i ' w b b [ u i [ y v x v y , z > u N b +.i F y b > y @.y b ] ] w J v b } i ",
"c 4 c 4 t F < < < 4 y y y [ N y u M M 4 c m F t q } ~ ' G y y w u b [ y v y v y j 4 4 u N J v v A c X.y y X.y ' > t.X.y y v m z ",
"y v y t c 4 , Z j g z M J ' i u h Z x a ~ w i X.[ i ' i J N v y G [ b y y b ( ' Z , S u y b t t.< t q { [ b ( ~ A < u u v 4 , j ",
"K a w ( c , c i y b y i [ G G [ c > y v v v y ' G [ N i ' ' ' G ' q @.y G G [ b J y v z z A x v z 4 u y | a } ! ( m > ! e F g < ",
"#.#.G [ c 4 M b [ J y b [ u y i m t y t N y [ i y b N v i i b [ b N 2.J y y b v x v v u t x v y z z c X.J G b t t z x ! ~ x m v ",
"G | a i y y N v b b v y y y i ] F v b b v X.( { y v x y y e y v N y 8 m y v < < < c y i y v X.y , 4 , x y J m t 4 j x { ! b ' i ",
"y J G a K G v c t.y q J +.u > i x y b b @.> b u ( v x x N N v v v N m > [ ( @.4 4 x y a K ] ] u m z t 4 x y c 4 j , M b u } i ' ",
"y b G | | K y u y y [ [ b b b } v > v v y N > y b v t x N N v x y N t b b t t c Z x b ] a ] G G y t ( u v > M M , M t N X.> 2.m ",
"y y v J | K v c X.y y y b ( b y v y [ t v x X.v y v t t y y y t t N [ q { i { t m y ' b y v G #.| G ( v y > y c c c u x m y @.B ",
"G y z m K | ] ( v N v t q b [ y c u [ y > m c ( i [ m x y y y y 4 u y G i i i [ y y ( v y y b #.,.K y i b J O.N F i e y z ( t < ",
"' y j z x K G u M v v X.( y G y v y v v v 4 m u i ' v y v [ [ b x m x v i { G v w ' ( ( c t v y K K G b J v v > v i ~ t m ! u 4 ",
"b J y t m X.b y i N v y > r.c f < t +.' t b [ i G i a w K [ v X.i i ( i i i ' ' ~ y m c u i ( x < N i ~ ! ! X.x j z y | ~ ( N c ",
"y J v t y v y y ' N N v t v j j h.v q v v v v b X.v g.v y y v x v v b v u y G G v y t < < t v y u [ b ( i u ( y j t b w ~ u ( y ",
"i ' b y v J b b y t > v X.v z , < N [ y y m x v z c 4 m c M : 4 t t v v y v [ [ < F y M < g m y e y y m x y [ i u b ] i ' ' ' a ",
"' ' b y b [ J b t v t v v v c t P [ [ y > x m > 4 4 c > M 4 ` : 8 t v N b b ' b m t t.y m m y [ v v y v y y v u q [ b N b [ i a ",
"i G ' i u y y v m ` N y v X.v u > N ' b F x t F @.> y v X.X.v y v v b [ ' G i u b v P v y ' y v F N ( ' i b ` m t N x c M 5 b i ",
"' G ' G u y v y u y ' e X.X.c v t y i b y y m y 7 [ $.q G ' v J N y i G ~ ~ i i i y m y i ~ u y t y e u i i v m t m z z 4 : u v ",
"X.b i ' ' [ b y v i { w y t < ( y y u [ [ y y [ } i i G ' i J K b y y i G ' ' G q +.q +.i G y v [ ( i i [ b y N j x F y 2 t t x ",
"x y y G i b J v N ' i ' N F < u N b u ' b y G i G i ( ' i ] 7 a.v y b ' ' G G b @.( i i N P u ' ~ i y x F v w ' z 8 e.y +.N M x ",
"g j z v b G ' ~ m x c v t b O.y N x X.> t.J v y c c z m X.i w.w.k.E T f.J y v ( i ] y ] y t.J y a.y i b i y > N e N G m a J G r ",
"c 4 4 y b b b y y m 4 : 4 N v i } i y v t y v v , < 0 w.k.w.w.w.w.E T T f.y y y > b y b t t y v y m v [ i ' [ ( z e m y ..i x ' ",
"M v v u v X.N t b v z j g v y ..r ! ( X.t y y y A 0 w.k.k.w.w.w.k.E E T f.W v ( ( y v c ` y t v u c 2 N u ( y i x F c 6 *.i w F ",
"v [ } b y [ X.t q t.m z Z x [ i ! i v z S t [ i 4 w.w.w.k.k.k.k.9.9.x.x.W f.f.m ` y x x N N q X.i v v : v y ] w m c t ` z  .m v ",
"y y b [ G i b b X.N y +.b y v y [ y < < < u } ~ W W 8.w.w.w.w.w.w.w.8.W f.T T f.t v < t u v v [ } [ v @.m v y b F Q 4 -.4 y.~ m ",
"x y y ' ~ i i u x N e i ~ w v x x m < < j c i 0 6.x.R R R 8.8.8.R R c.x.k.E T T y v y 4 c N b i G y y y 8 d.F t { O * @ k 2 t u ",
"b b ' i i ' G e [ 7 [ ' b y y X.b X.m : c u y 6.E E c.c.c.R R R c.c.c.k.E E T T f.y +.y y b y ' b y t.y > , j j h l.< + = : 4 : ",
"! i ~ ' ~ b [ J i { ' y X.y ' i ~ i ( c t v W 6.E E E c.c.c.c.c.c.w.w.w.k.E T T W ' i [ y y i ' v v y v ` j &.o @ 7.( U t Q :.;.",
"x v u ( u v N N i G [ y t.X.v y x m m x ` 0 0 E 0.w.w.E E E c.c.w.z.z.0.0.E x.W W c Z x i ' y v x m c c > M M m c t y y v 4 j f ",
"x y y u t t u 2 b v v v y t b y 4 , z x y 0 0 w.0.z.z.w.w.w.w.w.z.z.w.w.8.R W T T f.< < u y b x v y t m < 4 4 y y y b G v t 4 < ",
"b G [ u m m X.y v t X.N t > [ y Z , , M w 6.x.W w.w.>.>.>.z.z.z.z.8.R R W x.x.E T T < < x y v v [ q v z F > c y ( i u i i ' ( M ",
"w i ( y t t N v c c x N v v ( ' t ` x y +.6.E w.R 8.# $ # >.8.8.R W c.c.x.k.E E E T N m x v y [ ( v y x A F N y ( i i ' i } b y ",
"i } [ N x t u v x t t t @.y ( ' b y J y [ 6.0.w.w.>.X . X # c.c.c.c.c.k.k.w.0.E T f.W [ v N G ~ i i v > m x [ y y b ' [ y G G b ",
"t v y ( v x t u y y > X.y b y ' a | v y e E 0.z.E $ .   . $ z.z.z.z.z.w.z.z.0.9.T W W G y v { e u +.y v t v y y b b b v y v J X.",
", x y b [ v v b [ b y y y y { [ & t.N q [ 0 E z.z.$ .     # E E E z.z.z.z.w.0.8.W E T u y v [ q t X.b y b y [ y ' v v v v y y > ",
"g c ( i ' y b [ i [ ' y [ b ( e X.y v N ' R w.z.z.$ .     $ z.z.z.z.w.z.w.w.8.W E T T w v X.N b , ` y w i [ J t ' y v y v c ( ( ",
"v v N > t.X.m x c c c x X.v v m v v c 4 u 0 R w.0.>.X . $ # >.w.w.w.w.w.w.R w.k.E E f.y ' ! { i ~ b m t y v y ` j c v u t z c ( ",
"v v N b y t y x , z < c y i [ i y x m m u 0 R 8.w.w.>.X # w.w.w.w.w.8.8.R w.w.E E E f.m > ( y P ' y v x X.e y v v b i y x x y y ",
"N y v v q t J y A ; z N q ' i ' y y t S v 0 E w.R 8.8.8.8.8.8.w.8.R w.w.w.k.z.w.E f.W v v 5 m 8 b y y v y $.t t ~ ~ ~ i v x y y ",
"y v v N y v v ' c M v t ' ~ b J ( y < x v 0 E z.w.w.w.w.w.R R R R w.z.z.z.w.w.w.w.W f.N X.t ` > v N y $.i i v X.i i ( ( b v v J ",
"v t v t @.y i ' i b v y [ y v m ' y v y y R R 0.E z.z.z.z.w.w.w.w.z.z.z.w.w.8.8.R W f.y c u M [ x O.u y & g.P t c c c c u u i G ",
"N y > v y J i a ~ G b i y [ y z i i N y ( i 0 R w.w.z.z.z.z.z.w.z.w.8.8.8.R w.w.9.T x < 4 > u ' b G i b N t x y x j < 4 u u i i ",
"b y v v y y [ ' > t.v q ' ' b t G v y v [ G G 0 R R 8.8.8.8.8.8.8.8.w.z.z.w.z.9.< M v v , 4 y w | a ] b m m > i y t < 4 u i i i ",
"[ b v y N X.J y P x x X.' e } i [ x 8 m v v t x u w.z.z.z.w.w.w.w.z.z.z.z.z.*.t c > t.y z z m J a a i y m z y ' i v m x y i ] K ",
"M O.y K G ( t A y y v : X.y [ b y u c M x 8 4 3 m y i ' i [ v y M t M v X.y < x J N ' w ' J y v y b u , f j c ' ! ' i i y N X.u ",
"y 3.| #.G v N > [ v [ ( y [ b y v M 4 c N x 4 4 8 y ' ' [ t t y j < 4 v b O.i [ y y y y [ O.y t w i c 4 < j u i b [ [ ] y i ( y ",
"t y #.G u #.t y y b +.N v y b y v u v > t.y @.M m b w ~ b t @.v z z < y y ' i i y b y ' i y y v G G b y t t v i O.> t.y i } w i ",
"c v 7 ] ] i ] a [ q 2.v v b [ y t +.y [ [ y i ' @.y i ' b v > t.m m m y J ' ' i b ' b [ q [ y N [ ( J N y v v y y J v v ( u +.y ",
"F y v v y #.| K u [ b y ( X.b [ v N v y y q ' a t [ { ' y N O.J y b ( y b v b b X.b { i y g.b y c t c v v v c 4 y [ t 4 j z j c ",
"c y m v y [ #.| e y b y > N y [ b y v y v ( ' a y i i i $.v t y u ' i ( y y y v & [ t X.y > v y u 4 < 4 z v M x u b c , j g , Z ",
"v v m N c y K #.i } [ v v 2 y y ( y v v t @.q ] x b i ] b q [ u i ( u N v c v ( +.t v v N v > X.i z < < t i G ] a [ y M , c < S ",
"t 8 v t t y y #.[ y y N v N [ y ( b v F 4 =.2 a.J y i i v $.b ' ( v 4 t c > y y N v v y X.v y X.a v z z v i a K | a G b t v y y ",
"! z g ! q B V } m t [ +.q v 8 u.m 2 *.@ % @ 3 3 c v y y b [ v ( [ e y b #.t t z m z , m c v i ! G i ' i y G b v m L K K a w ` t ",
"i x x ( i t m u b b i ( ( v t 8 4 j , q.k d h % , , > y y ' a a y [ ' G #.<.y m e y u 2 v y ( a b [ G b y y +.y y X.K 1.| [ [ y ",
"' b b u y b y w ! i q t 2 M 4 4 ` @ + 7.~ z z i ;.%.Z c y i ~ ~ +.O.i #.K K #.y a ) ] t c v i b +.& g.y y b b y y J x L J G b y ",
"O.v y +.v i i +.( v v ` 4 v 4 (  .( t h 6 Y V & 3 , j M N G a a > v N v K <.5.K { p ` J v c i ' t J v y X.+.b J b J x y N v K s ",
": h.N v X.y y y x c y X.X.y [ ~ P y ' F B N e ~ ` u c M v u b [ F : F y G a.s.3.y m t c y O.( i m y v c 4 N y J b b y t ` b | ,.",
"y < x v v v v v z < < y v y } ~ ~ m x e z r F I [ y y u x 4 u ( x c c t y t > h.i.4 9 8 Z t i ~ N v M t M > y y b b y c u b G | ",
"{ A < i u > F y z 4 M [ y [ y v m g 4 z e  .> ' i y t t u t v ( v v u ( O.[ y y b j.1 < x ^ i ~ [ y > c M M +.t ( b b N t u y K ",
"! z c ! i F l 4.c 5 ^ ( i t M A u j 4 h z ~ J a [ ( M u X.J G G ' q ' i G G b u s i s.v c L v a b [ v > c t v +.y y [ N y 4 y x "
};
