/* XPM */
static char *_4a185d09d084949b2912fab2edd11b45QVrWiSMLQOaegXJ[] = {
/* columns rows colors chars-per-pixel */
"32 32 3 1 ",
"  c None",
". c black",
"X c #DBC62A",
/* pixels */
"                                ",
"                                ",
"                                ",
"                                ",
"                                ",
"              .                 ",
"              .                 ",
"             .X.                ",
"             .X.                ",
"             .XX.               ",
"             .XX.               ",
"            .XXX.               ",
"            .XXXX..             ",
"         ...XXXXXXX....         ",
"       ..XXXXXXXXXXXXXX..       ",
"     ..XXXXXXXXXXXXXX..         ",
"       ....XXXXXXX...           ",
"           ..XXXX.              ",
"             .XXX.              ",
"             .XX.               ",
"             .XX.               ",
"              .X.               ",
"              .X.               ",
"               .                ",
"               .                ",
"                                ",
"                                ",
"                                ",
"                                ",
"                                ",
"                                ",
"                                "
};
