/* XPM */
static char *bdb05893a37042d3f4fef542a2b55eafVTrx6Z4g5Iw4NF64[] = {
/* columns rows colors chars-per-pixel */
"64 64 143 2 ",
"   c #0A0703",
".  c #271B0E",
"X  c #172E1D",
"o  c #113017",
"O  c #13341D",
"+  c #18311F",
"@  c #153A1D",
"#  c #1B3622",
"$  c #1E3D25",
"%  c #352A22",
"&  c #412C1D",
"*  c #48321C",
"=  c #51361B",
"-  c #473020",
";  c #4C3525",
":  c #174020",
">  c #1A4424",
",  c #1C4C26",
"<  c #1D4F2E",
"1  c #1D5229",
"2  c #204427",
"3  c #25452A",
"4  c #224A2B",
"5  c #22572D",
"6  c #225E2F",
"7  c #265331",
"8  c #295532",
"9  c #245D33",
"0  c #2B5A35",
"q  c #245F38",
"w  c #2E5D39",
"e  c #256634",
"r  c #296437",
"t  c #266A35",
"y  c #296A37",
"u  c #2D633A",
"i  c #27683C",
"p  c #2B6C3A",
"a  c #31633C",
"s  c #316C3E",
"d  c #277138",
"f  c #2A723A",
"g  c #2E793F",
"h  c #31733F",
"j  c #587018",
"k  c #405820",
"l  c #5A4637",
"z  c #6B4A28",
"x  c #7A542D",
"c  c #634836",
"v  c #654A38",
"b  c #73533C",
"n  c #587020",
"m  c #507820",
"M  c #687820",
"N  c #336D40",
"B  c #2C7342",
"V  c #2E7C43",
"C  c #2F7D49",
"Z  c #337442",
"A  c #397646",
"S  c #337C43",
"D  c #397A47",
"F  c #347748",
"G  c #367C49",
"H  c #3B7C49",
"J  c #417F4C",
"K  c #805730",
"L  c #835A31",
"P  c #8A5F33",
"I  c #875C3D",
"U  c #8B5F3F",
"Y  c #99683E",
"T  c #A97138",
"R  c #B47A3C",
"E  c #966641",
"W  c #986743",
"Q  c #9D6A41",
"!  c #A46F40",
"~  c #A77040",
"^  c #AB7543",
"/  c #B17947",
"(  c #BB7E41",
")  c #B47B48",
"_  c #708020",
"`  c #709038",
"'  c #2F8244",
"]  c #368246",
"[  c #388047",
"{  c #34834A",
"}  c #3B844A",
"|  c #348B4C",
" . c #3D8A4D",
".. c #35904F",
"X. c #398650",
"o. c #348C51",
"O. c #3C8C52",
"+. c #379452",
"@. c #3C9454",
"#. c #3B9A56",
"$. c #3D9659",
"%. c #3D9D5A",
"&. c #3DA45C",
"*. c #3FA660",
"=. c #3FA960",
"-. c #40864F",
";. c #40884E",
":. c #488551",
">. c #418D51",
",. c #449354",
"<. c #449957",
"1. c #449658",
"2. c #439B5A",
"3. c #489858",
"4. c #489B5A",
"5. c #489D5B",
"6. c #43A25E",
"7. c #45A25E",
"8. c #48A15D",
"9. c #48A45F",
"0. c #44A660",
"q. c #48A761",
"w. c #46A962",
"e. c #44AB64",
"r. c #48A962",
"t. c #48AB64",
"y. c #48AC64",
"u. c #45B167",
"i. c #48B167",
"p. c #45B56A",
"a. c #48B368",
"s. c #48B66A",
"d. c #48B96C",
"f. c #48BE6F",
"g. c #48C070",
"h. c #808028",
"j. c #C0803F",
"k. c #A8C030",
"l. c #989840",
"z. c #BD8145",
"x. c #C48545",
"c. c #C6874A",
"v. c #CB8C4C",
/* pixels */
"_ M _ _ M M _ M M M _ M M _ _ M M M M M n n M M M _ _ _ _ M X _ _ _ M _ n M _ _ M M _ _ M M n n _ _ M M n n _ _ M M M M M M M M ",
"_ M M _ M M M M n M M _ M _ _ _ _ _ _ _ M n n n M M _ _ _ X 3.X < M M _ _ M _ M _ _ _ _ _ M _ n M M _ M n _ _ _ M n M M n n n M ",
"M M _ _ M n n M M n M M _ _ _ _ _ _ _ _ _ M M n n M _ X X i f.+.@ < X X _ _ _ _ _ M M M M M _ _ M _ _ M M n _ _ _ M n M M _ n n ",
"M _ _ _ _ _ M _ _ M M M M _ _ n l.M M M M M _ X X < < @ +.+.f d ] ,.,.8 < h._ _ _ _ M M M M M _ M _ _ _ M n _ M _ M M M M M _ _ ",
"n M n n M _ M _ _ _ M _ _ _ M _ M M n n n M X 0 X 6.2.0.w.3.1.1.1.r.#.S 7 < _ _ M M M M M M _ _ M M n n _ M M M _ _ M M _ _ _ _ ",
"n n n n M _ l.M M M M _ _ M M M M M n n n M M X C f.r.3.3.y.r.3.H H } ] ,.>.0 M n n n M _ _ _ _ _ M _ n M _ M _ _ _ M _ _ _ _ _ ",
"M n M n M _ n n n n M M M _ _ M M M _ n M M X t r u $.q.A @.r.3.A r ] 1.q.f.B 0 n n n M _ _ _ M M M _ _ M _ M _ n l._ M M M M M ",
"M M M M M n n M n n M M _ _ _ M n M M _ _ X d } S 0 H H H w.r.3.} y ] 3.3.t.p.X < n M M M _ n l.n n M _ _ _ _ _ M n M M M n n n ",
"_ _ M _ M n M M M M M _ _ _ _ _ M n M M _ X u y.7.S d d u @.O.p d ] 1.3.3.r.g.C < M M M M M M M M n M M h._ _ _ _ M n _ M M n n ",
"h.h._ _ M n _ _ _ _ M _ _ M M _ M M M M X B u.f.q.1.,.,.S f f S ,.6.d.r.3.3.y.@.+ 0 _ M n M _ M n M M _ _ _ _ M M M M _ _ M M M ",
"h._ _ _ M M M _ _ _ M M _ M M _ _ M M _ 0 { g.r.3.3.3.3.1.,.,.1.3.3.y.y.3.} X.$.# < M _ M M _ M n n n M M _ M n n n M _ _ _ _ _ ",
"n _ _ _ _ _ _ n l.M M _ _ M n _ M M _ y y { g.q.3.y.q.3.r.d.r.3.} } r.y.3.7.@.p > X M _ h._ _ M M n M n M M M n n n M _ _ _ _ _ ",
"M _ _ h.h._ M _ M M _ _ _ _ _ _ M n M X O.u >.3.y.f.r.}  .i.#.#.+.] r.$.H r.$.$ < M _ _ _ h._ _ M M M M M n _ M n M M M _ n l.M ",
"M M M _ h.h.M M _ M n _ M _ _ M M M X f.| y u a N %.O.H ] O.<.<.<.1.} u w s g > 0 0 X _ M M _ h._ _ _ _ M n M M M M M M M M M M ",
"_ M M M _ h._ _ _ M _ n M M _ M M X g.+. .>.Z y y g f } ,.] #.s.#.} ,.>.>.A r 9 4 6 d < M M _ h.h.h.M M _ _ _ _ _ _ M n M _ M n ",
"_ M n M M h._ M M _ M _ _ M _ M M < ]  .1.3.S d d d ] 1.3.] g @.<.,.q.s.s.7.A r y d 1 X M n _ M h._ _ _ _ _ M n M M _ M M _ M n ",
"_ _ M n M h.M M _ _ M M n l.m n n X s w.8.3.,.>.>.>.1.3.r.7.>.,.3.3.5.8.8.O.u y ] +., 0 M _ _ M n _ _ _ _ _ _ M n M M h._ _ M M ",
"M _ M M M M _ M _ _ _ M n M M n X 8 >.8.3.t.8.r.8.3.} %.d.r.3.3.3.3.q.s.$.p y d | %.7 O.X n M M M _ _ _ M M _ M M M M M _ _ _ M ",
"_ _ _ M M _ _ M M n n _ _ M M X : u 2.8.3.a.q.i.q.3.] B %.@.} 3.3.3.5.9.} r S $.+.Z y d , X M M M M M _ M M _ _ M M _ _ _ _ _ _ ",
"_ _ _ M _ _ _ _ M _ n M M _ 0 : e y *.9.3.a.d.f.O.Z } Z V p D 3.q.q. .S f Z } ] V y y d , X M M _ M M M M n _ M M _ _ _ _ _ _ _ ",
"_ _ _ _ M M M M M _ _ M _ _ X 1 d +.} >.r.f.g.g.| y } ] d r a } y.y.} d d ] ,. . . .A 0 > < < M M _ _ _ _ _ _ M n M M M M M M _ ",
"_ _ _ _ M _ M M M M _ M _ 0 8 y r Z w a { | | | g d } ] d y y p D ] g d S ,.3.3.3.>.A } D Z s X M n _ M _ _ M M M _ M n n n M M ",
"_ _ _ _ _ _ _ M M _ _ M X 8 >. .f y 0 r S g d ]  . .,.>. .S d y y d d d ] 3.3.3.3.,.H H 3.5.] X _ _ M _ _ M M _ n M M M M n n M ",
"M M M _ _ _ _ M _ _ _ X 7 >.3.3. .g y S ,.>. .,.3.3.3. . .] d d d d d d ] 3.3.>.S } >.H } s.o.X _ _ M M _ M M _ M n l.M _ _ _ M ",
"n n M M _ _ _ _ M M M < 0 7.5.3.3. . .6.i.8.3.3.q.@.2.| } ,. . . . . . .>.8.q. .y p } ,.} +.D X l.M M _ _ M n _ M _ _ M _ _ _ _ ",
"M n n M _ _ _ M M M 0 O.H G A >.3.3.3.@.6.5.3.3.@.V %.+.} 3.3.3.3.8.q.3.8.s.6.h h Z p } ,.} Z 4 X X _ _ _ _ _ _ M M M M _ _ M _ ",
"_ _ _ M M _ _ n _ X 0 5.3.} H ,.3.3.3.S  .3.3.3.>.} 2.<.,.3.3.3.9.s.y.3.>.{ F y S 1.{ p }  .s >.C X < _ M _ _ M M M M _ _ _ M M ",
"M _ _ _ _ _ _ M X e y >.H ,.3.3.3.3.3. .,.3.3.3.3. .>.3.3.9.y.,.2.g.y.-.s y y d S 5.3.Z Z -.w A { Z X n M M _ M M M M _ M _ M _ ",
"M M _ _ _ _ M _ X 9 d Z O.w.5.H >.3.3.3.3.3.3.3.3. .,.3.3.y.g.2.,.2.H s y d d g  .3.>.N Z -.8 0 r 8 4 X _ M _ M _ _ j ` j l._ M ",
"M M M _ _ _ _ X i ] f y ] p.8.} ,.3.q.5.3.3.3.3.q.y.@.] D 2.g.s.,.s y y d g }  .3.3.} 0 g [ H H } H S 9 X l.M M _ k j k j j M M ",
"M _ _ _ _ _ _ X 9 >.} f y { 1.r.5.3.s.9.3.3.3.3.i.g.%.g y F 0.0.F y d d g  .3.3.3.3.} y d S 3.3.3.>.' #.X n n n j k.j k j j j j ",
"_ _ _ _ _ _ X O.O 2.3.} } p S @.0.y.d.O.>.q.5.3.i.s.8. .} h S S h S d g  .3.3.3.3.5.@.y d S 3.,.} S g { < < ` k k l._ M M M ` ` ",
"M M M _ M X q q S 0.3.3.3.} g d | #.O.u @.d.@.A } } ,.3.3. .S d } >.}  .3.3.3.3.3.<.G y g  .3.,.} S p +.| X M _ M n M M M n n n ",
"M M M M M X O.O.1.3.3.3.3.3.} g d d y 0 G e.] r r y } 3.3.3. .] $.r.8.3.3.3.3.5.r.O.0 g  .3.3.3.3.,.H %.O.0 n M M M _ _ M M n n ",
"M _ _ M M < X 9 A 7.r.3.q.} ,.} ] ] ] p r | V d d S >.3.3.3.>.H 2.g.y.>.>.8.3.5.s.0.Z g  .3.3.3.3.3.>.p Z 0 < M _ M M _ _ _ _ M ",
"M _ _ M n X o t r +.#.0.y.H ,.3.3.3.3.S d d S g S >.3.3.3.3.] y @.g.6.A $.y.3.>.<.a. .d S 3.3.5.q.3.,.A S t 2 < _ _ _ _ _ _ _ M ",
"_ _ _ _ X < t d y | ] 0.5.3. .} 1.3.3.} ] ] } ] >.3.8.5.3.3. .g { %.{ h O.O.} Z Z +.S d S 3.3.8.d.7. .q.,.g 3.< M _ _ _ _ _ _ _ ",
"n _ M _ 0 6.+.f r u.5.3.3. .] ] ,.3.3.3.3.3.S @.<.} 0.r.>.<.<.} g d d d y r p ] ] | ] ] } 3.3.5.y.6.g #.} } 3.y _ _ M _ M M _ _ ",
"n M M _ X 8 p.g d @.} ,.3.g ] } 1.3.3.3.3.3.S | | g | @.S #.+.}  .] ] g d g  .3.q.a.,. .3.3.3.,.H D d d g 3.3.y _ _ M M M M M n ",
"n M _ _ _ X 0.] d 0 F ,.3.g | ] ,.8.@.1.3.3.} S } h h S S #.$. .3.3.3.} y ] 3.,.@.6.<.} 3.3.3.,.G N f ] } >.0 y _ M _ M M M _ _ ",
"M M _ n l.X u ,.g 0 e.5.3.g +.O.5.d.{  .3.3.3.3.D s -.3.3.3.3.3.3.3.3.-.s Z >.>.g ' 2.3.5.8.3.8.s.>.g 3.3.H 0 _ n M _ M n M M _ ",
"_ M _ M n M X -.g r @.3.3.} S S #.&.| ,.>.,.3.>.s H 8.,.>.3.3.3.3.3.3.3.-.s S >.>.S } 3.9.d.8.3.$.} g 3.>.8 X M _ _ M _ M n M M ",
"M M M _ M n X -.S d 0 >.3.-.,.3.} S ,.>.g ] ,.S y D $.} O.5.>.>.3.3.>.>.>.D d S 3.3.3.3.8.s.s.-.0 d g 3.} X M M M _ _ _ M M M M ",
"M M M _ M M 0 X s y 0 >.-.G ,.3.8.q.5.S g ] ,.} g d r H y.r.H } 5.5.H N Z y d S ,.>.8.3.3.9.d.,.0 d g >.s 0 M _ _ _ _ _ _ M M _ ",
"M n M M _ M _ _ X 9 r } u e.8.>.u.g.<.g  .6.$.1.S y y } s.2. . .$.@.D y y d d S D ] s.8.1.@.%.O.r d S h X l._ M M M M M M M _ _ ",
"_ M n M M _ _ _ X > 1 g u @.>.u O.6.Z f >.} S >.} S g ..=.] y d y 0 y g S S S S g ] *.2.G y 0 u S S u > X n M M M n n n M M _ M ",
"_ M M M M M M _ n X X u 5 9 0 y r 0 y  .3.3.3.3.3.3.] d d d d d d d d ] 3.3.3.3. .d y 0 r d d ] 3.H O.X _ M n _ M M n n M M _ _ ",
"_ _ M M _ _ M M _ M M X < > f S g g g <.3.,.1.3.3.3.} f d d g S S S S } 3.3.1.<.@.S S g d g f Z Z Z X M M M M _ _ M M M M _ _ _ ",
"_ _ M _ _ _ M M M M M n _ X w Z } 3.} | G f  .3.,.1.3.} S S } ,.3.3.3.3.5.3.] V } } 5.} 9 Z X X < X M n n n M _ _ _ _ _ M _ _ M ",
"n l.h.h._ _ M n _ _ _ _ M _ X < 1 o.O < X ,  .3.p S 1.3.3.3.Z h ,.;.A A } | d > X > a.s X < M M M M M n n n M _ _ _ _ _ M M _ M ",
"M M h._ _ _ M M M _ _ _ M M _ M y 0 0 n l.X X < X @ < H J :.X X p 3 < 0 X X < X M X X X _ _ M M _ _ _ M n M M M _ n l.M M _ _ M ",
"M M n _ _ _ _ _ _ n l.M M _ _ M n _ M _ _ M _ _ _ * % X < X b ; X X % X _ _ _ _ _ _ _ _ M _ M _ _ _ _ _ M M M M M M M M _ _ _ _ ",
"_ M M _ _ h.h._ M _ M M _ _ _ _ _ _ M M M M _ _ M . W b * E E b l b U * _ M M _ _ _ _ _ M l._ M M M M M M _ M n M _ M n M n n M ",
"M M M M M _ h.h.M M _ M n _ M _ _ M M M M _ _ _ M . v.^ ^ ! x.! ! ~ U . M M M M n _ M _ M n M M M n n n M M _ M M _ M n n n n M ",
"M M _ M M M _ h._ _ _ M _ n M M _ M M M M _ M _ . * v.v.! ! x.~ ~ ^ Q . M M M _ _ M M M _ M n _ M M n n M M _ h._ _ M M n M n M ",
"M n M M n M M h._ M M _ M _ _ M _ M _ _ j n j * . K x.x.x.! x.z.! x.x.x * . n n n n M M _ M M _ _ M M M M _ _ _ h._ _ M M M M M ",
"_ M n _ M n M h.M M _ _ M M n l.M M n k j k * P x.Q / v.v.! x.( x./ Y T ( z.. k k k k n n _ M _ _ _ _ _ M _ _ M M _ h._ _ M _ M ",
"_ M M _ M M M M _ M _ _ _ M n n n n j k.j . L z.Y U ) x.( z.z.! ^ v.x . * z . k k M k k n n _ _ _ _ _ _ M M _ M M _ h.h.h._ _ M ",
"_ _ M M _ M M _ _ M M n n _ M n n k k l.k . x *   L v.x.! v c I ! x.v.x . * k n k n k M k k n _ _ n l.M M _ _ M n _ M h._ _ _ M ",
"_ _ M _ _ M _ _ _ _ M _ n M n _ _ _ k k k n * . j.x.v.! I & . - ~ x.v.v.v.. k k k M M k k k n _ M _ M M _ _ _ _ _ _ M n _ _ _ _ ",
"n l._ M _ _ M M M M M _ _ M h.n k k k M k k n * R z.( = . . k . . j.x.c.v.. k k k n k k k k _ n M M M M n _ M _ _ M M M _ _ h.h.",
"M n M M M M M M n n n M M _ _ n k n M k M M k k . . * . k k k k k . * * . k k k n n k k k k n n _ M M M _ n M M _ M M M M M _ h.",
"_ M n _ M n _ M M n _ _ M M M _ k k k k k k k k k k k k k n k M M M M k k k k M n k k n n n _ _ _ M n M M _ _ M _ M _ _ M M M _ ",
"_ M M _ _ M n l.M m _ _ M M M n M n M n n n n M M k k k n n n M n n n k k k k k k _ M M M n _ _ _ _ M n M M _ _ M M _ _ M n M M "
};
