/* XPM */
static char *_affd346aa6c44ffda0dbf8d9b7617e7eSA9DbyFBQngwYfG[] = {
/* columns rows colors chars-per-pixel */
"20 20 3 1 ",
"  c black",
". c #84357D",
"X c #A349A4",
/* pixels */
"... ......... ......",
"... ......... ......",
".... ......... .....",
".... ......... .....",
"                    ",
"........ ......... .",
"........ ......... .",
"......... ......... ",
"......... ......... ",
"                    ",
"... ......... ......",
"... ......... ......",
".... ......... .....",
".... ......... .....",
"                    ",
"X..XXXXXXXXXXXXXXXXX",
"X..XXXXXXXXXXXXXXXXX",
"X..XXXXXXXXXXXXXXXXX",
"X..XXXXXXXXXXXXXXXXX",
"                    "
};
